<?xml version="1.0" encoding="UTF-8"?><svg id="Layer_1" xmlns="http://www.w3.org/2000/svg" viewBox="0 0 334.1846 334.1851"><defs><style>.cls-1{fill:#5e6777;}</style></defs><path class="cls-1" d="M108.3273,269.9078v-138.7425h-46.0928v138.7425h46.0928ZM85.3041,112.2269c16.0605,0,26.0867-10.6761,26.0867-23.9515-.3249-13.6468-10.0262-23.9979-25.8082-23.9979s-26.0867,10.3511-26.0867,23.9979c0,13.3219,10.0262,23.9515,25.4833,23.9515h.3249ZM133.857,269.9078h46.1392v-77.4711c0-4.1312.3249-8.3088,1.5318-11.2331,3.3421-8.3088,10.9082-16.8496,23.673-16.8496,16.6639,0,23.3481,12.7184,23.3481,31.3784v74.1755h46.1392v-79.5599c0-42.6114-22.7447-62.4318-53.1018-62.4318-24.8799,0-35.788,13.9253-41.8687,23.3945h.3249v-20.0989h-46.1392c.557,12.997-.0464,138.6961-.0464,138.6961h0Z"/><path class="cls-1" d="M309.4873,334.1851H24.6973c-13.6182,0-24.6973-11.0791-24.6973-24.6973V24.6978C0,11.0791,11.0791,0,24.6973,0h284.79c13.6182,0,24.6973,11.0791,24.6973,24.6978v284.79c0,13.6182-11.0791,24.6973-24.6973,24.6973ZM24.6973,15c-5.3467,0-9.6973,4.3506-9.6973,9.6978v284.79c0,5.3467,4.3506,9.6973,9.6973,9.6973h284.79c5.3467,0,9.6973-4.3506,9.6973-9.6973V24.6978c0-5.3472-4.3506-9.6978-9.6973-9.6978H24.6973Z"/></svg>