<?xml version="1.0" encoding="UTF-8"?><svg id="Layer_1" xmlns="http://www.w3.org/2000/svg" viewBox="0 0 257.6948 310.7964"><defs><style>.cls-1{fill:#5e6777;}</style></defs><path class="cls-1" d="M232.9971,310.7964H24.6978c-13.6182,0-24.6978-11.0796-24.6978-24.6978V24.6978C0,11.0796,11.0796,0,24.6978,0h208.2993c13.6182,0,24.6978,11.0796,24.6978,24.6978v261.4009c0,13.6182-11.0796,24.6978-24.6978,24.6978ZM24.6978,15c-5.3472,0-9.6978,4.3506-9.6978,9.6978v261.4009c0,5.3472,4.3506,9.6978,9.6978,9.6978h208.2993c5.3472,0,9.6978-4.3506,9.6978-9.6978V24.6978c0-5.3472-4.3506-9.6978-9.6978-9.6978H24.6978Z"/><path class="cls-1" d="M211.854,88.7056H45.8413c-4.1421,0-7.5-3.3579-7.5-7.5s3.3579-7.5,7.5-7.5h166.0127c4.1421,0,7.5,3.3579,7.5,7.5s-3.3579,7.5-7.5,7.5Z"/><path class="cls-1" d="M211.854,135.1768H45.8413c-4.1421,0-7.5-3.3579-7.5-7.5s3.3579-7.5,7.5-7.5h166.0127c4.1421,0,7.5,3.3579,7.5,7.5s-3.3579,7.5-7.5,7.5Z"/><path class="cls-1" d="M211.854,181.6479H45.8413c-4.1421,0-7.5-3.3579-7.5-7.5s3.3579-7.5,7.5-7.5h166.0127c4.1421,0,7.5,3.3579,7.5,7.5s-3.3579,7.5-7.5,7.5Z"/><path class="cls-1" d="M125.1118,228.1196H45.8413c-4.1421,0-7.5-3.3579-7.5-7.5s3.3579-7.5,7.5-7.5h79.2705c4.1421,0,7.5,3.3579,7.5,7.5s-3.3579,7.5-7.5,7.5Z"/></svg>