<?xml version="1.0" encoding="UTF-8"?><svg id="Layer_2" xmlns="http://www.w3.org/2000/svg" xmlns:xlink="http://www.w3.org/1999/xlink" viewBox="0 0 456.8027 273.0324"><defs><style>.cls-1{fill:#29304a;}.cls-2{fill:url(#linear-gradient);}</style><linearGradient id="linear-gradient" x1="179.7435" y1="151.4754" x2="277.0797" y2="-17.1158" gradientUnits="userSpaceOnUse"><stop offset="0" stop-color="#2020b3"/><stop offset="1" stop-color="#2f8be9"/></linearGradient></defs><g id="Layer_1-2"><path class="cls-2" d="M210.5952,7.7158l18.628-7.7158-46.2921,111.7624,93.1373-38.5791-7.7158,18.6309-111.7653,46.292,30.8604-74.5092-55.8812,23.1474,7.7158-18.6252,55.8812-23.1474,15.4317-37.256ZM209.2721,147.1479l80.9049-33.5122,38.579-93.1372-93.14,38.5791,7.7158-18.628,77.7056-32.1863-18.6253-7.7158-69.9926,28.9928-23.1475,55.8812,93.1463-38.6008-23.1565,55.9058-88.6177,36.7057,18.6279,7.7158Z"/><path class="cls-1" d="M55.7207,246.9562l-8.7168,25.8545h-2.8809l-7.5713-22.0498-7.6094,22.0498h-2.8438l-8.7168-25.8545h2.8076l7.4609,22.2344,7.7188-22.2344h2.5488l7.6084,22.3457,7.5713-22.3457h2.623Z"/><path class="cls-1" d="M86.9297,270.4464v2.3643h-18.2822v-25.8545h17.7285v2.3643h-14.9961v9.1963h13.3711v2.3271h-13.3711v9.6025h15.5498Z"/><path class="cls-1" d="M120.9648,261.6749c.9229,1.0957,1.3848,2.5059,1.3848,4.2285,0,2.2158-.8193,3.9219-2.4561,5.1152-1.6377,1.1953-4.0576,1.792-7.2578,1.792h-11.8926v-25.8545h11.1543c2.8809,0,5.1152.5791,6.7031,1.7363s2.3828,2.7949,2.3828,4.9121c0,1.4277-.3516,2.6406-1.0527,3.6377-.7021.9971-1.6689,1.7422-2.8994,2.2344,1.6992.3701,3.0098,1.1025,3.9336,2.1982ZM103.4756,249.2091v9.3818h8.2363c2.0928,0,3.7061-.4004,4.8389-1.2012,1.1328-.7998,1.6992-1.9629,1.6992-3.4902,0-1.5264-.5664-2.6895-1.6992-3.4902-1.1328-.7998-2.7461-1.2002-4.8389-1.2002h-8.2363ZM117.8438,269.3751c1.1816-.7871,1.7725-2.0186,1.7725-3.6934,0-3.2256-2.3398-4.8379-7.0176-4.8379h-9.123v9.7139h9.123c2.3145,0,4.0635-.3936,5.2451-1.1826Z"/><path class="cls-1" d="M153.043,246.9562h10.5264c2.7324,0,5.1455.5479,7.2393,1.6436,2.0918,1.0957,3.7178,2.6221,4.875,4.5801,1.1572,1.957,1.7363,4.1924,1.7363,6.7031s-.5791,4.7461-1.7363,6.7041c-1.1572,1.957-2.7832,3.4844-4.875,4.5801-2.0938,1.0957-4.5068,1.6436-7.2393,1.6436h-10.5264v-25.8545ZM163.4209,270.4464c2.2656,0,4.248-.4492,5.9473-1.3477,1.6982-.8984,3.0156-2.1426,3.9512-3.7305.9355-1.5889,1.4043-3.417,1.4043-5.4854s-.4688-3.8965-1.4043-5.4844-2.2529-2.8311-3.9512-3.7305c-1.6992-.8984-3.6816-1.3477-5.9473-1.3477h-7.6455v21.126h7.6455Z"/><path class="cls-1" d="M209.2197,270.4464v2.3643h-18.2822v-25.8545h17.7285v2.3643h-14.9961v9.1963h13.3711v2.3271h-13.3711v9.6025h15.5498Z"/><path class="cls-1" d="M244.5293,246.9562l-11.4502,25.8545h-2.6963l-11.4502-25.8545h2.9551l9.8984,22.4561,9.9727-22.4561h2.7705Z"/><path class="cls-1" d="M274.4824,270.4464v2.3643h-18.2822v-25.8545h17.7285v2.3643h-14.9961v9.1963h13.3711v2.3271h-13.3711v9.6025h15.5498Z"/><path class="cls-1" d="M288.2969,246.9562h2.7324v23.4902h14.4785v2.3643h-17.2109v-25.8545Z"/><path class="cls-1" d="M321.7773,271.3146c-2.0811-1.1445-3.707-2.7148-4.876-4.709-1.1699-1.9951-1.7539-4.2354-1.7539-6.7227s.584-4.7275,1.7539-6.7217c1.1689-1.9941,2.7949-3.5645,4.876-4.709,2.0801-1.1455,4.4004-1.7178,6.9619-1.7178s4.8691.5664,6.9248,1.6992,3.6758,2.7021,4.8574,4.709,1.7725,4.2539,1.7725,6.7402-.5908,4.7344-1.7725,6.7412-2.8018,3.5762-4.8574,4.709-4.3643,1.6992-6.9248,1.6992-4.8818-.5732-6.9619-1.7178ZM334.2793,269.2091c1.6494-.9229,2.9424-2.2031,3.8779-3.8408s1.4033-3.4658,1.4033-5.4854-.4678-3.8467-1.4033-5.4844-2.2285-2.918-3.8779-3.8408c-1.6494-.9238-3.4971-1.3857-5.54-1.3857s-3.8965.4619-5.5586,1.3857c-1.6621.9229-2.9678,2.2031-3.915,3.8408-.9482,1.6377-1.4219,3.4658-1.4219,5.4844s.4736,3.8477,1.4219,5.4854c.9473,1.6377,2.2529,2.918,3.915,3.8408,1.6621.9238,3.5146,1.3848,5.5586,1.3848s3.8906-.4609,5.54-1.3848Z"/><path class="cls-1" d="M373.2451,249.3204c1.8711,1.5752,2.8076,3.7422,2.8076,6.5s-.9365,4.9189-2.8076,6.4824-4.457,2.3447-7.7559,2.3447h-6.9443v8.1631h-2.7324v-25.8545h9.6768c3.2988,0,5.8848.7881,7.7559,2.3643ZM371.2881,260.5665c1.3535-1.1201,2.0312-2.7021,2.0312-4.7461,0-2.0928-.6777-3.6992-2.0312-4.8203-1.3545-1.1201-3.3125-1.6797-5.873-1.6797h-6.8701v12.9268h6.8701c2.5605,0,4.5186-.5596,5.873-1.6807Z"/><path class="cls-1" d="M408,270.4464v2.3643h-18.2822v-25.8545h17.7285v2.3643h-14.9961v9.1963h13.3711v2.3271h-13.3711v9.6025h15.5498Z"/><path class="cls-1" d="M439.4678,272.8107l-5.9092-8.3105c-.665.0742-1.3545.1104-2.0684.1104h-6.9443v8.2002h-2.7324v-25.8545h9.6768c3.2988,0,5.8848.7881,7.7559,2.3643,1.8711,1.5752,2.8076,3.7422,2.8076,6.5,0,2.0195-.5117,3.7246-1.5332,5.1152-1.0225,1.3916-2.4805,2.3955-4.377,3.0107l6.3164,8.8643h-2.9922ZM437.2891,260.5851c1.3535-1.1328,2.0312-2.7207,2.0312-4.7646,0-2.0928-.6777-3.6992-2.0312-4.8203-1.3545-1.1201-3.3125-1.6797-5.873-1.6797h-6.8701v12.9639h6.8701c2.5605,0,4.5186-.5664,5.873-1.6992Z"/><path class="cls-1" d="M34.6738,186.2306h-13.3174v34.5566h-8.0381v-34.5566H0v-7.0986h34.6738v7.0986Z"/><path class="cls-1" d="M42.7705,220.7872v-41.6553h18.4219c1.916,0,3.6865.4014,5.3096,1.2021,1.623.8027,3.0215,1.8584,4.1953,3.1689s2.0918,2.7969,2.7578,4.458c.6641,1.6631.9971,3.3359.9971,5.0166,0,2.6992-.6748,5.1543-2.0244,7.3633-1.3486,2.21-3.1777,3.8047-5.4854,4.7812l9.5049,15.665h-9.0938l-8.5078-13.9629h-7.9785v13.9629h-8.0967ZM50.8672,199.7247h10.1494c.7422,0,1.4375-.1758,2.083-.5283.6455-.3516,1.2031-.8301,1.6719-1.4365.4697-.6064.8408-1.3203,1.1152-2.1416.2725-.8213.4102-1.7021.4102-2.6406,0-.9775-.1562-1.877-.4688-2.6982-.3135-.8223-.7334-1.5352-1.2617-2.1416s-1.1348-1.0752-1.8193-1.4082c-.6846-.332-1.3779-.499-2.082-.499h-9.7979v13.4941Z"/><path class="cls-1" d="M113.6426,213.6886v7.0986h-28.9238v-41.6553h28.3965v7.0986h-20.2998v10.0332h17.542v6.5703h-17.542v10.8545h20.8271Z"/><path class="cls-1" d="M127.1963,179.132l11.2646,31.5059,11.1465-31.5059h8.5078l-16.252,41.6553h-6.8057l-16.3691-41.6553h8.5078Z"/><path class="cls-1" d="M181.7598,221.0812c-3.0518,0-5.8193-.5967-8.3027-1.79-2.4844-1.1924-4.6152-2.7764-6.3945-4.752-1.7803-1.9746-3.1592-4.2334-4.1367-6.7764-.9775-2.542-1.4668-5.1426-1.4668-7.8037,0-2.7764.5186-5.4355,1.5547-7.9785,1.0361-2.542,2.4648-4.791,4.2832-6.7471,1.8193-1.9551,3.9795-3.5107,6.4834-4.6641,2.5029-1.1533,5.2217-1.7314,8.1553-1.7314,3.0107,0,5.7588.6162,8.2432,1.8486,2.4834,1.2314,4.6055,2.8457,6.3652,4.8398,1.7607,1.9951,3.1289,4.2637,4.1074,6.8057.9766,2.543,1.4668,5.125,1.4668,7.7451,0,2.7773-.5088,5.4268-1.5254,7.9492-1.0176,2.5234-2.4258,4.7529-4.2246,6.6885-1.7998,1.9365-3.9512,3.4814-6.4541,4.6348-2.5029,1.1543-5.2217,1.7314-8.1543,1.7314ZM169.6729,199.9591c0,1.7998.2734,3.541.8213,5.2217.5479,1.6826,1.3398,3.1689,2.377,4.459,1.0352,1.291,2.3066,2.3281,3.8135,3.1104,1.5049.7822,3.2168,1.1729,5.1338,1.1729,1.9551,0,3.6855-.4004,5.1924-1.2031,1.5049-.8008,2.7764-1.8672,3.8135-3.1973,1.0352-1.3291,1.8184-2.8252,2.3467-4.4883.5273-1.6621.792-3.3535.792-5.0752,0-1.7979-.2842-3.5391-.8506-5.2207-.5674-1.6816-1.3701-3.1689-2.4062-4.459-1.0361-1.291-2.3076-2.3184-3.8135-3.0811s-3.1973-1.1436-5.0742-1.1436c-1.957,0-3.6963.4014-5.2217,1.2031s-2.7969,1.8574-3.8135,3.168c-1.0176,1.3105-1.79,2.7969-2.3184,4.459-.5273,1.6631-.792,3.3535-.792,5.0742Z"/><path class="cls-1" d="M211.2705,220.7872v-41.6553h18.4219c1.916,0,3.6865.4014,5.3096,1.2021,1.623.8027,3.0215,1.8584,4.1953,3.1689s2.0918,2.7969,2.7578,4.458c.6641,1.6631.9971,3.3359.9971,5.0166,0,2.6992-.6748,5.1543-2.0244,7.3633-1.3486,2.21-3.1777,3.8047-5.4854,4.7812l9.5049,15.665h-9.0938l-8.5078-13.9629h-7.9785v13.9629h-8.0967ZM219.3672,199.7247h10.1494c.7422,0,1.4375-.1758,2.083-.5283.6455-.3516,1.2031-.8301,1.6719-1.4365.4697-.6064.8408-1.3203,1.1152-2.1416.2725-.8213.4102-1.7021.4102-2.6406,0-.9775-.1562-1.877-.4688-2.6982-.3135-.8223-.7334-1.5352-1.2617-2.1416s-1.1348-1.0752-1.8193-1.4082c-.6846-.332-1.3779-.499-2.082-.499h-9.7979v13.4941Z"/><path class="cls-1" d="M295.0508,190.0441c-.2744-.2725-.7725-.6455-1.4961-1.1143-.7246-.4697-1.6045-.9287-2.6406-1.3789-1.0361-.4492-2.1611-.8311-3.373-1.1445-1.2129-.3125-2.4453-.4688-3.6963-.4688-2.2295,0-3.8926.4102-4.9873,1.2314-1.0947.8223-1.6426,1.9756-1.6426,3.4619,0,.8604.2051,1.5752.6162,2.1416.4102.5674,1.0068,1.0664,1.7891,1.4961.7822.4307,1.7695.8213,2.9629,1.1729,1.1934.3525,2.5713.7246,4.1367,1.1152,2.0332.5479,3.8809,1.1348,5.5439,1.7598,1.6621.626,3.0703,1.4082,4.2246,2.3467,1.1533.9395,2.043,2.0635,2.6689,3.374s.9395,2.9238.9395,4.8398c0,2.2295-.4209,4.1367-1.2617,5.7207-.8418,1.584-1.9756,2.8652-3.4033,3.8428-1.4277.9785-3.0703,1.6924-4.9277,2.1416-1.8584.4492-3.8047.6748-5.8379.6748-3.1299,0-6.2188-.4697-9.2695-1.4082s-5.7891-2.2676-8.2139-3.9893l3.5781-6.9824c.3525.3525.9873.8125,1.9072,1.3789.9189.5674,2.0039,1.1348,3.2559,1.7012,1.252.5684,2.6406,1.0469,4.166,1.4375,1.5254.3916,3.0889.5869,4.6934.5869,4.459,0,6.6885-1.4268,6.6885-4.2832,0-.8984-.2549-1.6611-.7627-2.2881-.5088-.625-1.2324-1.1729-2.1709-1.6426-.9385-.4688-2.0732-.8994-3.4023-1.291-1.3301-.3896-2.8164-.8213-4.459-1.29-1.9951-.5479-3.7256-1.1445-5.1924-1.79-1.4668-.6445-2.6895-1.4072-3.667-2.2881-.9785-.8799-1.7119-1.8965-2.2002-3.0508-.4893-1.1533-.7334-2.5312-.7334-4.1357,0-2.1123.3906-3.9902,1.1738-5.6328.7812-1.6426,1.8672-3.0107,3.2559-4.1064,1.3877-1.0947,3.001-1.9268,4.8398-2.4941,1.8379-.5664,3.8135-.8506,5.9258-.8506,2.9336,0,5.6328.4609,8.0967,1.3789,2.4639.9199,4.6152,2.0049,6.4541,3.2559l-3.5791,6.5713Z"/><path class="cls-1" d="M343.1006,220.7872v-27.5752l-10.7363,20.5352h-4.4004l-10.7363-20.5352v27.5752h-8.0967v-41.6553h8.6826l12.3213,23.7021,12.4375-23.7021h8.625v41.6553h-8.0967Z"/><path class="cls-1" d="M362.8135,220.7872v-41.6553h8.0967v41.6553h-8.0967Z"/><path class="cls-1" d="M413.6797,186.2306h-13.3174v34.5566h-8.0381v-34.5566h-13.3184v-7.0986h34.6738v7.0986Z"/><path class="cls-1" d="M456.8027,179.132v41.6553h-8.0381v-17.7764h-18.8916v17.7764h-8.0967v-41.6553h8.0967v16.8379h18.8916v-16.8379h8.0381Z"/></g></svg>